<?xml version="1.0" standalone="no"?>
<!DOCTYPE svg PUBLIC "-//W3C//DTD SVG 1.1//EN" "http://www.w3.org/Graphics/SVG/1.1/DTD/svg11.dtd" >
<svg xmlns="http://www.w3.org/2000/svg">
  <defs>
    <font id="icon-ourimg" horiz-adv-x="1024">
      <font-face
        font-family="icon-ourimg"
        units-per-em="1024"
        ascent="1024"
        descent="0"
      />
      <missing-glyph horiz-adv-x="0"/>
        <glyph
          glyph-name="qunar-help"
          unicode="&#xf000;"
          horiz-adv-x="1024" d=" M961,518 Q954,708 825.5,833 Q697,958 507,960 Q316,953 191,824.5 Q66,696 64,505 Q71,315 199.5,190 Q328,65 519,63 Q709,70 834,198.5 Q959,327 961,518 M571,301 Q570,273 552,256 Q534,239 505,239 L503,239 Q474,240 456,258.5 Q438,277 439,305.5 Q440,334 458,351.5 Q476,369 504,369 L507,369 Q536,368 554,349.5 Q572,331 571,301 M666,557 L666,557 Q651,538 612,509 L585,490 Q562,473 557,457 Q555,451 554,446 Q553,441 553,429 L553,424 L448,424 L449,433 Q449,460 452,477.5 Q455,495 466,508 Q486,530 513,549.5 Q540,569 544,571 Q555,580 562,590 Q579,612 578,629 Q578,653 564,673 Q550,693 512.5,693 Q475,693 459.5,668 Q444,643 444,616 L444,612 L336,612 L337,617 Q341,716 407,758 Q448,784 508,784 Q586,784 638.5,746.5 Q691,709 692,634 Q691,592 666,557" />
        <glyph
          glyph-name="qunar-trash_o"
          unicode="&#xf05b;"
          horiz-adv-x="1024" d=" M368,192 Q361,192 356.5,196.5 Q352,201 352,208 L352,672 Q352,679 356.5,683.5 Q361,688 368,688 Q375,688 379.5,683.5 Q384,679 384,672 L384,208 Q384,201 379.5,196.5 Q375,192 368,192 M528,208 L528,672 Q528,679 523.5,683.5 Q519,688 512,688 Q505,688 500.5,683.5 Q496,679 496,672 L496,208 Q496,201 500.5,196.5 Q505,192 512,192 Q519,192 523.5,196.5 Q528,201 528,208 M792,736 Q782,736 775,729 Q768,722 768,712 L768,184 Q768,167 756.5,155.5 Q745,144 728,144 L296,144 Q279,144 267.5,155.5 Q256,167 256,184 L256,712 Q256,722 249,729 Q242,736 232,736 Q222,736 215,729 Q208,722 208,712 L208,184 Q209,147 234,122 Q259,97 296,96 L728,96 Q765,97 790,122 Q815,147 816,184 L816,712 Q816,722 809,729 Q802,736 792,736 M896,792 Q896,782 889,775 Q882,768 872,768 L152,768 Q142,768 135,775 Q128,782 128,792 Q128,802 135,809 Q142,816 152,816 L384,816 L384,872 Q385,896 400.5,911.5 Q416,927 440,928 L584,928 Q608,927 623.5,911.5 Q639,896 640,872 L640,816 L872,816 Q882,816 889,809 Q896,802 896,792 M592,872 Q591,879 584,880 L440,880 Q433,879 432,872 L432,816 L592,816 M672,208 L672,672 Q672,679 667.5,683.5 Q663,688 656,688 Q649,688 644.5,683.5 Q640,679 640,672 L640,208 Q640,201 644.5,196.5 Q649,192 656,192 Q663,192 667.5,196.5 Q672,201 672,208" />
        <glyph
          glyph-name="qunar-heart_f"
          unicode="&#xf06f;"
          horiz-adv-x="1024" d=" M960,641 Q960,590 941,544 Q922,498 885,461 L552,127 Q536,111 513,111 Q513,111 513,111 Q490,111 473,127 L139,461 Q102,498 83,544 Q64,590 64,641.5 Q64,693 83,739 Q102,785 138.5,821.5 Q175,858 221,877 Q267,896 318.5,896 Q370,896 416,877 Q462,858 499,821 Q506,814 512,807 Q518,814 525,821 Q562,858 608,877 Q654,896 705.5,896 Q757,896 803,877 Q849,858 885.5,821.5 Q922,785 941,739 Q960,693 960,641" />
        <glyph
          glyph-name="qunar-download2_o"
          unicode="&#xf0aa;"
          horiz-adv-x="1024" d=" M203,520 L491,264 L512,256 L524,258 L821,520 Q831,530 832,542.5 Q833,555 823.5,565 Q814,575 801.5,576 Q789,577 779,568 L544,360 L544,928 Q544,942 535,951 Q526,960 512,960 Q498,960 489,951 Q480,942 480,928 L480,360 L245,568 Q235,577 222.5,576 Q210,575 200.5,565 Q191,555 192,542.5 Q193,530 203,520 M864,384 Q850,384 841,375 Q832,366 832,352 L832,128 L192,128 L192,352 Q192,366 183,375 Q174,384 160,384 Q146,384 137,375 Q128,366 128,352 L128,96 Q128,82 137,73 Q146,64 160,64 L864,64 Q878,64 887,73 Q896,82 896,96 L896,352 Q896,366 887,375 Q878,384 864,384" />
        <glyph
          glyph-name="apt-bianji-f"
          unicode="&#xf1bf;"
          horiz-adv-x="1024" d=" M897,511 Q897,525 888,534 Q879,543 865,543 Q851,543 842,534 Q833,525 833,511 L833,223 Q833,209 824,200 Q815,191 801,191 L224,191 Q211,191 202,200 Q193,209 192,223 L192,799 Q193,813 202,822 Q211,831 224,831 L513,831 Q526,832 535,841 Q544,850 544,863.5 Q544,877 535,886 Q526,895 513,895 L192,895 Q165,895 147,877 Q129,859 128,831 L128,191 Q129,164 147,146 Q165,128 192,127 L833,127 Q860,128 878,146 Q896,164 897,191 M339,429 L320,336 L321,336 Q319,329 325,323.5 Q331,318 339,320 L430,338 L878,786 Q897,806 897,831.5 Q897,857 877.5,876.5 Q858,896 832.5,896 Q807,896 787,877" />
        <glyph
          glyph-name="mob-qshangcheng1-f"
          unicode="&#xf28e;"
          horiz-adv-x="1024" d=" M474,176 Q486,150 504,128 L152,128 Q142,128 135,135.5 Q128,143 128,153 L160,777 Q161,787 167.5,793.5 Q174,800 184,800 L712,800 Q722,800 728.5,793.5 Q735,787 736,777 L745,605 Q725,608 704,608 L697,608 L689,752 L207,752 L177,176 M335,832 Q336,832 337,832 Q350,833 353,846 Q359,882 385.5,904.5 Q412,927 448,927 Q484,927 510.5,904.5 Q537,882 543,846 Q544,839 549,835 Q554,831 561,832 Q568,833 572,838.5 Q576,844 575,850 Q567,898 532,928.5 Q497,959 448,959 Q399,959 364,928.5 Q329,898 321,850 Q321,844 324.5,838.5 Q328,833 335,832 M928,288 Q928,231 901,181 L909,173 Q928,153 928,127.5 Q928,102 909,83 Q890,64 864,64 Q838,64 819,83 L811,91 Q761,64 704,64 Q609,66 545.5,129.5 Q482,193 480,288 L480,352 Q482,447 545.5,510.5 Q609,574 704,576 Q799,574 862.5,510.5 Q926,447 928,352 M896,352 Q894,433 839.5,487.5 Q785,542 704,544 Q623,542 568.5,487.5 Q514,433 512,352 L512,288 Q514,207 568.5,152.5 Q623,98 704,96 Q758,96 805,125 L816,131 L841,105 Q851,96 864,96 Q877,96 886.5,105.5 Q896,115 896,128 Q896,141 887,151 L861,176 L867,187 Q896,233 896,288 M832,352 L832,288 Q832,266 825,245 L816,221 L791,247 Q781,256 768,256 Q755,256 745.5,246.5 Q736,237 736,224 Q736,211 745,201 L771,176 L747,167 Q726,160 704,160 Q650,161 613.5,197.5 Q577,234 576,288 L576,352 Q577,406 613.5,442.5 Q650,479 704,480 Q758,479 794.5,442.5 Q831,406 832,352 M800,352 Q799,393 772,420 Q745,447 704,447 Q663,447 636,420 Q609,393 608,352 L608,288 Q609,247 636,220 Q663,193 704,192 L712,192 Q702,211 704.5,232 Q707,253 723,269 Q742,288 768,288 Q785,288 800,280 L800,288" />
        <glyph
          glyph-name="mob-huangguan-o"
          unicode="&#xf3e6;"
          horiz-adv-x="1024" d=" M856,152 Q856,142 849,135 Q842,128 832,128 L192,128 Q182,128 175,135 Q168,142 168,152 Q168,162 175,169 Q182,176 192,176 L832,176 Q842,176 849,169 Q856,162 856,152 M960,776 Q959,744 940,720.5 Q921,697 891,690 L856,230 Q855,220 848.5,214 Q842,208 832,208 L192,208 Q182,208 175.5,214 Q169,220 168,230 L133,690 Q103,697 84,720.5 Q65,744 64,776 Q65,813 90,838 Q115,863 152,863 Q189,863 214,838 Q239,813 240,776 Q240,757 232.5,740.5 Q225,724 212,712 L319,529 L450,778 Q425,803 425,840 Q425,877 450,902 Q475,927 512,927 Q549,927 574,902 Q599,877 599,840 Q599,803 574,778 L705,530 L812,712 Q799,724 791.5,740.5 Q784,757 784,776 Q785,814 810,838.5 Q835,863 872.5,863 Q910,863 934.5,838 Q959,813 960,776 M192,776 Q192,793 180.5,804.5 Q169,816 152,816 Q135,816 123.5,804.5 Q112,793 112,776 Q112,759 123.5,747.5 Q135,736 152,736 Q169,736 180.5,747.5 Q192,759 192,776 M552,840 Q552,857 540.5,868.5 Q529,880 512,880 Q495,880 483.5,868.5 Q472,857 472,840 Q472,823 483.5,811.5 Q495,800 512,800 Q529,800 540.5,811.5 Q552,823 552,840 M912,776 Q912,793 900.5,804.5 Q889,816 872,816 Q855,816 843.5,804.5 Q832,793 832,776 Q832,759 843.5,747.5 Q855,736 872,736 Q889,736 900.5,747.5 Q912,759 912,776" />
        <glyph
          glyph-name="mob-chazi-f"
          unicode="&#xf3f3;"
          horiz-adv-x="1024" d=" M825,233 Q832,226 832,216 Q832,206 825,199 Q818,192 808,192 Q798,192 791,199 L512,478 L233,199 Q226,192 216,192 Q206,192 199,199 Q192,206 192,216 Q192,226 199,233 L478,512 L199,791 Q192,798 192,808 Q192,818 199,825 Q206,832 216,832 Q226,832 233,825 L512,546 L791,825 Q798,832 808,832 Q818,832 825,825 Q832,818 832,808 Q832,798 825,791 L546,512" />
        <glyph
          glyph-name="mob-sousuokuang-f"
          unicode="&#xf407;"
          horiz-adv-x="1024" d=" M951,119 L741,328 Q784,379 808,442 Q832,505 832,576 Q828,739 719.5,847.5 Q611,956 448,960 Q285,956 176.5,847.5 Q68,739 64,576 Q68,413 176.5,304.5 Q285,196 448,192 Q519,192 582,216 Q645,240 696,283 L905,73 Q915,64 928,64 Q941,64 950.5,73.5 Q960,83 960,96 Q960,109 951,119 M448,256 Q312,259 221.5,349.5 Q131,440 128,576 Q131,712 221.5,802.5 Q312,893 448,896 Q584,893 674.5,802.5 Q765,712 768,576 Q765,440 674.5,349.5 Q584,259 448,256" />
        <glyph
          glyph-name="mob-wenhao-f"
          unicode="&#xf49b;"
          horiz-adv-x="1024" d=" M560,144 Q559,124 545.5,110.5 Q532,97 512,97 Q492,97 478.5,110.5 Q465,124 465,144 Q465,164 478.5,177.5 Q492,191 512,191 Q532,191 545.5,177.5 Q559,164 560,144 M760,736 Q747,786 716.5,826 Q686,866 641.5,892.5 Q597,919 547.5,926 Q498,933 448,920 Q398,907 358,876.5 Q318,846 292,802 Q257,741 256,672 Q256,662 263,655 Q270,648 280,648 L280,648 Q290,648 297,655 Q304,662 304,672 Q305,728 333,777 Q354,813 387,838 Q420,863 460.5,873.5 Q501,884 541.5,878 Q582,872 618,851 Q654,830 678.5,797 Q703,764 713.5,723.5 Q724,683 718.5,642.5 Q713,602 691.5,566 Q670,530 637.5,505.5 Q605,481 564,470 L563,470 Q523,459 501,423 Q485,394 488,361 L488,280 Q488,270 494.5,263 Q501,256 511.5,256 Q522,256 528.5,263 Q535,270 536,280 L535,365 Q534,383 543,399 Q554,418 576,424 L577,424 Q627,437 666.5,467.5 Q706,498 732.5,542.5 Q759,587 766,636.5 Q773,686 760,736" />
        <glyph
          glyph-name="ops-shangchuan-f"
          unicode="&#xf50a;"
          horiz-adv-x="1024" d=" M663,311 Q672,301 672,288 Q672,275 662.5,265.5 Q653,256 640,256 Q627,256 617,265 L544,339 L544,128 Q544,114 535,105 Q526,96 512,96 Q498,96 489,105 Q480,114 480,128 L480,339 L407,265 Q397,256 384,256 Q371,256 361.5,265.5 Q352,275 352,288 Q352,301 361,311 L489,439 Q499,448 512,448 Q525,448 535,439 M768,704 Q743,704 720,698 Q713,796 646,861 Q579,926 480,928 Q378,925 310.5,857.5 Q243,790 240,688 L241,672 L239,672 Q164,670 114.5,620.5 Q65,571 63,496 Q65,421 114.5,371.5 Q164,322 239,320 L288,320 Q302,320 311,329 Q320,338 320,352 Q320,366 311,375 Q302,384 288,384 L238,384 Q191,385 159.5,417 Q128,449 127,496 Q128,544 159.5,575.5 Q191,607 239,608 Q255,608 270,604 Q288,599 301,612 Q314,625 310,643 Q304,665 304,688 Q306,763 356,812.5 Q406,862 480,864 Q555,862 604.5,812.5 Q654,763 656,688 Q656,671 653,655 Q651,645 654.5,636.5 Q658,628 666,622.5 Q674,617 683.5,616.5 Q693,616 701,621 Q732,640 768,640 Q823,639 859,603 Q895,567 896,512 Q895,458 859,422 Q823,386 768,384 L736,384 Q723,384 714,375 Q705,366 705,352.5 Q705,339 714,330 Q723,321 736,320 L768,320 Q850,322 904,376.5 Q958,431 960,512 Q958,594 903.5,648 Q849,702 768,704" />
        <glyph
          glyph-name="ops-xiaoxi1-f"
          unicode="&#xf50d;"
          horiz-adv-x="1024" d=" M560,576 Q559,556 545.5,542.5 Q532,529 512,529 Q492,529 478.5,542.5 Q465,556 465,576 Q465,596 478.5,609.5 Q492,623 512,623 Q532,623 545.5,609.5 Q559,596 560,576 M352,624 Q332,623 318.5,609.5 Q305,596 305,576 Q305,556 318.5,542.5 Q332,529 352,529 Q372,529 385.5,542.5 Q399,556 399,576 Q399,596 385.5,609.5 Q372,623 352,624 M896,800 L896,352 Q895,311 868,284 Q841,257 800,256 L507,256 L361,142 Q343,128 320,128 Q293,129 275,147 Q257,165 256,192 L256,256 L224,256 Q183,257 156,284 Q129,311 128,352 L128,800 Q129,841 156,868 Q183,895 224,896 L800,896 Q841,895 868,868 Q895,841 896,800 M832,800 Q832,814 823,823 Q814,832 800,832 L224,832 Q210,832 201,823 Q192,814 192,800 L192,352 Q192,338 201,329 Q210,320 224,320 L320,320 L320,192 L485,320 L800,320 Q814,320 823,329 Q832,338 832,352 M672,624 Q652,623 638.5,609.5 Q625,596 625,576 Q625,556 638.5,542.5 Q652,529 672,529 Q692,529 705.5,542.5 Q719,556 719,576 Q719,596 705.5,609.5 Q692,623 672,624" />
        <glyph
          glyph-name="ops-gouwuche-f"
          unicode="&#xf50f;"
          horiz-adv-x="1024" d=" M352,288 Q311,287 284,260 Q257,233 257,192 Q257,151 284,124 Q311,97 352,97 Q393,97 420,124 Q447,151 447,192 Q447,233 420,260 Q393,287 352,288 M352,160 Q338,160 329,169 Q320,178 320,192 Q320,206 329,215 Q338,224 352,224 Q366,224 375,215 Q384,206 384,192 Q384,178 375,169 Q366,160 352,160 M921,756 Q911,768 896,768 L247,768 L223,902 Q221,913 212.5,920.5 Q204,928 192,928 L128,928 Q114,928 105,919 Q96,910 96,896 Q96,882 105,873 Q114,864 128,864 L165,864 L257,346 Q259,335 267.5,327.5 Q276,320 288,320 L800,320 Q814,320 823,329 Q832,338 832,352 Q832,366 823,375 Q814,384 800,384 L315,384 L304,448 L840,448 Q851,448 860,455 Q869,462 871,473 L927,729 Q930,744 921,756 M814,512 L292,512 L258,704 L856,704 M736,288 Q695,287 668,260 Q641,233 641,192 Q641,151 668,124 Q695,97 736,97 Q777,97 804,124 Q831,151 831,192 Q831,233 804,260 Q777,287 736,288 M736,160 Q722,160 713,169 Q704,178 704,192 Q704,206 713,215 Q722,224 736,224 Q750,224 759,215 Q768,206 768,192 Q768,178 759,169 Q750,160 736,160" />
        <glyph
          glyph-name="www-liulane09d-o"
          unicode="&#xe09d;"
          horiz-adv-x="1024" d=" M511.995 760.001C371.623 760.001 262.2 665.867 128 513.241C243.62 382.742 340.645 266.293 511.995 266.293S809.279 413.708 895.991 510.481C807.227 623.852 681.282 760.001 511.995 760.001zM511.995 348.594C427.298 348.594 358.397 422.414 358.397 513.147C358.397 603.886 427.298 677.706 511.995 677.706S665.594 603.886 665.594 513.147C665.594 422.414 596.693 348.594 511.995 348.594zM511.995 609.145C462.598 609.145 422.398 566.077 422.398 513.146C422.398 460.22 462.597 417.147 511.995 417.147S601.593 460.22 601.593 513.146C601.593 566.078 561.393 609.145 511.995 609.145z" />
        <glyph
          glyph-name="www-shoucange09f-o"
          unicode="&#xe09f;"
          horiz-adv-x="1024" d=" M511.774 872L638.363 647.394L895.823 599.004L716.597 411.797L749.13 157.289L511.774 266.208L274.415 157.289L306.945 411.797L127.729 599.004L385.187 647.394L511.774 872" />
        <glyph
          glyph-name="travel-shoucang2e0d8-f"
          unicode="&#xe0d8;"
          horiz-adv-x="1024" d=" M895.823 599.004L638.363 647.394L511.774 872L385.187 647.394L127.729 599.004L306.946 411.797L274.415 157.289L511.774 266.208L749.13 157.289L716.597 411.797L895.823 599.004zM530.606 307.247L511.773 315.889L492.94 307.247L329.519 232.257L351.736 406.071L354.469 427.452L339.563 443.023L217.984 570.022L393.526 603.016L414.196 606.901L424.522 625.224L511.774 780.032L599.025 625.223L609.352 606.9L630.022 603.015L805.564 570.022L683.979 443.023L669.072 427.452L671.805 406.071L694.024 232.258L530.606 307.247z" />
        <glyph
          glyph-name="mob-changjianwentie10c-o"
          unicode="&#xe10c;"
          horiz-adv-x="1024" d=" M896 546.8C896 757.4 725.4 928 514.8 928S128.8 757.4 128.8 546.8C128.8 421.6 194 310.6 287 241.2C381.4 159 510.6 100.4 648.8 63C655.8 61 661 59.8 665 58.6C671.4 56 679.8 55.2 686 56.8C692.4 58.8 696.6 66.2 692.8 77C692.8 77.2 692.6 77.4 692.6 77.4L692.6 77.4L638.4 186C788.4 237.6 896 379.6 896 546.8zM523.6 303.8C516.2 297 507.8 293.4 497.4 293.4C487 293.4 478.4 297 471.2 303.8C463.8 311.2 460.8 319.6 460.8 330S463.8 349 471.2 355.6C478.6 363 487 366 497.4 366C507.8 366 517 363 524.2 355.6C531 348.8 534.6 340.4 534.6 330C534.4 319 530.8 310.6 523.6 303.8zM611.4 547.8C605.4 540.4 588.8 524.6 562 500.8C548.6 489.2 539.4 478.2 533.4 467.2C525.4 453.8 521.8 439.2 521.8 422.6V408.6H473V422.6C473 442.8 476.6 460.4 484 475.6C492.6 493.8 512.6 517 545.6 546.4C555.4 556.2 562.6 563.4 566.4 568.4C578.6 583.6 584.6 599.6 584.6 616.6C584.6 641 577.2 660 563.8 673.4C549.8 688 529.6 694.8 504 694.8C473.6 694.8 451 685 436.4 665C423 648 416.2 624.8 416.2 594.8H368C368 637.4 379.6 671.6 404 697.2C428.4 724 462.6 737.4 506.4 737.4C545.4 737.4 576.6 727 600.4 705C623 684.2 634.6 655.6 634.6 619C634.6 591.6 626.6 567.8 611.4 547.8z" />
        <glyph
          glyph-name="mob-cugantanhaoe159-f"
          unicode="&#xe159;"
          horiz-adv-x="1024" d=" M512 896C300.262 896 128 723.738 128 512S300.262 128 512 128S896 300.262 896 512S723.738 896 512 896zM512 160C317.906 160 160 317.906 160 512S317.906 864 512 864S864 706.094 864 512S706.094 160 512 160z M512 402C528.568 402 542 415.432 542 432V744C542 760.568 528.568 774 512 774S482 760.568 482 744V432C482 415.432 495.432 402 512 402z M464 304C464 277.49 485.49 256 512 256C538.51 256 560 277.49 560 304C560 330.51 538.51 352 512 352C485.49 352 464 330.51 464 304z" />
        <glyph
          glyph-name="qunar-western_restaurant_o"
          unicode="&#xf0c9;"
          horiz-adv-x="1024" d=" M512 928C282.6 928 96 741.4 96 512S282.6 96 512 96S928 282.6 928 512S741.4 928 512 928zM512 144C309 144 144 309 144 512S309 880 512 880S880 715 880 512S715 144 512 144zM601.4 775.6C560.8 799.4 513.6 806.2 468 794.4C422.4 782.6 384.2 753.8 360.4 713.4C344.4 686.2 336 655.4 336 624C336 610.8 346.8 600 360 600H360C373.2 600 384 610.8 384 624C384 646.8 390.2 669.2 401.8 689C419.2 718.4 447 739.4 480 748C513.2 756.6 547.6 751.8 577 734.4C606.4 717 627.4 689.2 636 656.2C644.6 623.2 639.8 588.6 622.4 559.2S577.2 508.8 544.4 500.2L544.2 500.2C524.6 495.2 508.2 482.8 498 465.4C490 451.6 486.4 436.2 487.8 420.4V392C487.8 378.8 498.6 368 511.8 368S535.8 378.8 535.8 392V422.6L535.6 423.8C535 429.8 536.2 435.6 539.2 440.8C543 447.2 549 451.8 556.2 453.6C601.8 465.4 640 494.2 663.8 534.6C687.6 575.2 694.4 622.4 682.6 668C670.6 713.6 641.8 751.8 601.4 775.6zM512.4 319.2C486.2 319.2 464.8 297.8 464.8 271.6S486.2 224 512.4 224S560 245.4 560 271.6S538.6 319.2 512.4 319.2z" />
        <glyph
          glyph-name="mob-tianjia-f"
          unicode="&#xf298;"
          horiz-adv-x="1024" d=" M512 928C282.6 928 96 741.4 96 512S282.6 96 512 96S928 282.6 928 512S741.4 928 512 928zM512 144C309 144 144 309 144 512S309 880 512 880S880 715 880 512S715 144 512 144zM752 536H536V752C536 765.2 525.2 776 512 776S488 765.2 488 752V536H272C258.8 536 248 525.2 248 512S258.8 488 272 488H488V272C488 258.8 498.8 248 512 248S536 258.8 536 272V488H752C765.2 488 776 498.8 776 512S765.2 536 752 536z" />
        <glyph
          glyph-name="mob-huidae163-o"
          unicode="&#xe163;"
          horiz-adv-x="1024" d=" M447.2 546L564.4 546L506.8 715.2z M784.4 844C712 918 621.2 956.4 512 959.2C402.8 956.4 312 918 239.6 844S129.6 677.6 127.2 567.2C128 504.4 141.2 446.8 166.8 393.6S227.6 295.6 272.4 259.2C355.2 190 444.4 140 540.8 109.6S689.6 64.4 698.4 65.2L663.2 205.2C733.2 236.4 789.2 284 831.6 347.6S895.6 484.4 897.2 567.2C894.4 677.6 856.8 770 784.4 844zM618.4 397.2L584.8 488.4H428.4L394.8 397.2H302L452.8 797.2H560.8L711.6 397.2H618.4z" />
        <glyph
          glyph-name="travel-qitae2c3-o"
          unicode="&#xe2c3;"
          horiz-adv-x="1024" d=" M420.934 603.258C411.07 593.452 402.326 582.578 394.862 570.84C374.954 539.75 364.374 503.606 364.374 466.688C364.278 415.448 384.638 366.288 420.934 330.118L567.182 184.008C603.36 147.9 652.376 127.606 703.49 127.572C810.152 127.504 896.674 213.914 896.742 320.576C896.92 371.738 876.658 420.852 840.458 457.008L724.972 572.494C722.362 575.126 718.804 576.596 715.098 576.574C707.48 576.53 701.34 570.318 701.382 562.698V557.18C701.488 526.918 695.678 496.924 684.276 468.894C682.15 463.73 683.35 457.792 687.31 453.858L762.24 379.066C794.582 346.724 794.582 294.288 762.24 261.948C729.898 229.606 677.462 229.606 645.122 261.948L498.46 408.75C466.184 441.066 466.184 493.416 498.46 525.732C518.956 547.51 518.956 581.482 498.46 603.258C489.082 612.628 476.644 618.308 463.42 619.26C447.618 620.27 432.142 614.442 420.934 603.258z M184.19 840C108.764 764.574 108.764 642.286 184.19 566.862L299.4 451.514C303.392 447.54 309.398 446.394 314.574 448.618C319.764 450.814 323.096 455.95 322.988 461.584V466.688C322.934 496.914 328.79 526.858 340.232 554.838C342.358 560.004 341.158 565.94 337.198 569.874L262.82 644.39C230.478 676.732 230.478 729.168 262.82 761.508C295.162 793.85 347.598 793.85 379.938 761.508L479.836 661.472L481.078 660.368L526.05 615.122C558.326 582.806 558.326 530.456 526.05 498.14C505.554 476.362 505.554 442.39 526.05 420.614C535.498 411.184 548.046 405.498 561.364 404.612C577.166 403.604 592.642 409.432 603.852 420.614C619.886 436.582 632.964 455.262 642.478 475.792C643.856 478.688 644.962 481.586 646.202 484.482C647.444 487.378 648.408 490.414 649.512 493.31C650.616 496.206 651.582 499.242 652.408 502.138L654.614 510.278C655.992 515.796 657.098 521.314 658.062 526.97C659.074 533.782 659.718 540.644 659.994 547.524V557.18V558.008L659.028 566.284C658.89 569.318 658.2 572.492 658.2 576.078V580.768L656.822 590.286L655.994 594.7L654.338 602.7V604.218C645.826 638.104 628.282 669.044 603.572 693.746L457.324 839.994C381.904 915.426 259.616 915.426 184.19 840z" />
        <glyph
          glyph-name="apt-shouyee386-f"
          unicode="&#xe386;"
          horiz-adv-x="1024" d=" M864.2 512C846.6 512 832.2 497.6 832.2 480V128.2C832.2 92.8 803.4 64 768 64H640V320C640 355.4 611.4 384 576 384H447.2C411.8 384 383.2 355.4 383.2 320V64H256C220.6 64 191.8 92.8 191.8 128.2V480C191.8 497.6 177.4 512 159.8 512S127.8 497.6 127.8 480V127.4C127.8 57 184.8 0 255.2 0H768.6C839 0 896 57 896 127.4V480C896.2 497.6 881.8 512 864.2 512zM576 64H447.4V287.4C447.4 305.4 462 320 480 320H543.4C561.4 320 576 305.4 576 287.4V64z M1000.2 533.4L554.8 978.8L509.6 1024L464.4 978.8L21.4 535.8C9 523.4 9 503 21.4 490.6C33.8 478.2 54.2 478.2 66.6 490.6L509.6 933.4L955 488C967.4 475.6 987.8 475.6 1000.2 488C1012.6 500.6 1012.6 520.8 1000.2 533.4z M-4.6 506.8C-4.6 506.8 -4.6 506.8 -4.6 506.8C-4.6 506.8 -4.6 506.8 -4.6 506.8C-4.6 506.8 -4.6 506.8 -4.6 506.8C-4.6 506.8 -4.6 506.8 -4.6 506.8z M488.6 512.8C488.6 512.8 488.6 512.8 488.6 512.8C488.6 512.8 488.6 512.8 488.6 512.8C488.6 512.8 488.6 512.8 488.6 512.8C488.6 512.8 488.6 512.8 488.6 512.8z" />
        <glyph
          glyph-name="flightinnovation-xiajiantoue443-f"
          unicode="&#xe443;"
          horiz-adv-x="1024" d=" M691.6 357C675.6 372.2 650.2 371.6 635 355.6L552 268.2V856C552 878 534 896 512 896S472 878 472 856V268.2L389 355.6C373.8 371.6 348.4 372.2 332.4 357C316.4 341.8 315.8 316.4 331 300.4L483 140.4C490.6 132.4 501 128 512 128S533.4 132.4 541 140.4L693 300.4C708.2 316.4 707.6 341.8 691.6 357z" />
        <glyph
          glyph-name="flightinnovation-xiajiantoue447-f"
          unicode="&#xe447;"
          horiz-adv-x="1024" d=" M332.4 667C348.4 651.8 373.8 652.4 389 668.4L472 755.8V168C472 146 490 128 512 128C534 128 552 146 552 168V755.8L635 668.4C650.2 652.4 675.6 651.8 691.6 667C707.6 682.2 708.2 707.6 693 723.6L541 883.6C533.4 891.6 523 896 512 896C501 896 490.6 891.6 483 883.6L331 723.6C315.8 707.6 316.4 682.2 332.4 667z" />
        <glyph
          glyph-name="train tickets-chaziquane4d6-o"
          unicode="&#xe4d6;"
          horiz-adv-x="1024" d=" M512 928C282.6 928 96 741.4 96 512S282.6 96 512 96S928 282.6 928 512S741.4 928 512 928zM705 353A24.02 24.02 0 0 0 705 319C700.4 314.4 694.2 312 688 312S675.8 314.4 671 319L512 478L353 319C348.4 314.4 342.2 312 336 312S323.8 314.4 319 319A24.02 24.02 0 0 0 319 353L478 512L319 671A24.02 24.02 0 0 0 319 705A24.02 24.02 0 0 0 353 705L512 546L671 705A24.02 24.02 0 0 0 705 705A24.02 24.02 0 0 0 705 671L546 512L705 353z" />
        <glyph
          glyph-name="train tickets-jifene4fc-f"
          unicode="&#xe4fc;"
          horiz-adv-x="1024" d=" M896 296V736C896 737.2 895.8 738.2 895.8 739.4C896 741 896 742.4 896 744C896 819.2 706.4 880 512 880S128.2 819.2 128.2 744C128.2 742.4 128.4 741 128.4 739.4C128.2 738.2 128.2 737.2 128.2 736V296H128C128 264 150.4 218.4 256.6 183.8C326.6 161 419.8 148 512 148C604.2 148 697.2 161 767.4 183.8C873.6 218.4 896 264 896 296zM176.2 515.8C192.2 505 213.2 494.8 240.6 485.4C303.6 464 420.6 448 512 448C602.2 448 719.4 464.4 783.8 487C811 496.6 832 507 848 517.6V442.8C848 424.2 816.6 401.2 768 384.2C708.6 363.4 597 344 512 344C425.6 344 314.2 363 256 382.8C206 399.8 176.2 422.2 176.2 442.8V515.8zM848 590.8C848 572.2 816.6 549.2 768 532.2C708.6 511.4 597 496 512 496C425.6 496 314.2 511 256 530.8C206 547.8 176.2 570.2 176.2 590.8V680.4C244.6 637.4 377.2 608 512 608C647 608 779.4 637.4 848 680.4V590.8zM272.4 798C340 819.6 427.2 832 512 832C596.8 832 684.2 819.6 751.6 798C824.2 774.8 845.4 750.4 847.8 744C845.4 737.6 824.2 713.2 751.6 690C684 668.4 596.6 656 512 656C427.2 656 339.8 668.4 272.4 690C200 713.2 178.8 737.6 176.4 744C178.8 750.4 199.8 774.8 272.4 798zM752.6 229.4C687 208.2 599.4 196 512 196S337 208.2 271.4 229.4C201 252.4 176 278.8 176 296H176.2V367.8C192.2 357 213.2 346.8 240.6 337.4C303.6 316 420.6 296 512 296C602.2 296 719.4 316.4 783.8 339C811 348.6 832 359 848 369.6V296C848 278.8 823 252.4 752.6 229.4z" />
        <glyph
          glyph-name="平台改版-gerenzhongxin_card3_feihangguanjiae5d7-o"
          unicode="&#xe5d7;"
          horiz-adv-x="1024" d=" M311.4 663.4C311.4 774 401.4 864 512 864S712.6 774 712.6 663.4S622.6 462.8 512 462.8S311.4 552.8 311.4 663.4zM144.2 228.8V271.6C144.2 316.2 172 354.2 211.8 363.8L326.4 393.4V252.6C326.4 234.2 341.4 219.2 359.8 219.2C363 219.2 366.2 219.6 369.2 220.6L512 262.6L653.2 220.6C670.8 215.4 689.6 225.4 694.8 243.2C695.8 246.2 696.2 249.4 696.2 252.8V393.6L812.2 364C852 354.4 879.8 316.4 879.8 271.8V229C879.8 192 849.8 162.2 813 162.2H211.2C174.2 162 144.2 192 144.2 228.8zM612.2 423.2L510.2 383.2L411.6 423.2C400.6 427.4 378.2 435 378.2 423.2V288.6C378.2 276.8 400.6 284.4 411.6 288.6L510.2 326.6L612.2 288.6C623.2 284.4 643.8 281.6 643.8 293.4V423.2C643.8 431 633.2 431 612.2 423.2z" />
    </font>
</defs>
</svg>
